<?xml version="1.0" encoding="UTF-8"?>
<svg id="Layer_1" xmlns="http://www.w3.org/2000/svg" version="1.1" viewBox="0 0 1152 896">
  <!-- Generator: Adobe Illustrator 29.3.1, SVG Export Plug-In . SVG Version: 2.1.0 Build 151)  -->
  <defs>
    <style>
      .st0 {
        fill: #106cd8;
      }

      .st1 {
        font-family: BellMT, 'Bell MT';
        font-size: 79.97px;
      }
    </style>
  </defs>
  <g>
    <path class="st0" d="M606.85,383.41c-.07-6.85-1.02-13.46-2.75-19.76-.03-.1-.05-.18-.08-.28-2.28-8.21-5.9-15.88-10.6-22.74-.03-.03-.05-.08-.08-.12v-.02c-1.93-2.8-4.03-5.46-6.33-7.98-.32-.37-.63-.73-.97-1.08-.22-.27-.47-.52-.72-.78-3-3.13-6.26-6.03-9.78-8.63-12.88-9.56-28.84-15.23-46.13-15.23h-24.72c-42.4,0-76.75,34.35-76.75,76.74v131.65l62.58-62.58v-66.29c0-12.03,9.76-21.79,21.79-21.79h6.75c13.99,0,25.34,11.35,25.34,25.34v124.79l62.48-62.48v-67.94c0-.27,0-.55-.02-.82ZM593.28,448.69l-35.15,35.15v-90.6c0-10.98-4.21-20.99-11.11-28.47-7.7-8.36-18.73-13.59-30.97-13.59-10.83,0-20.66,4.4-27.76,11.5-7.1,7.11-11.5,16.91-11.5,27.76v58.81l-35.12,35.12v-103.01c0-33.8,27.41-61.21,61.21-61.21h31.82c11.83,0,22.84,3.52,32.05,9.55,3.58,2.33,6.88,5.06,9.86,8.11,10.3,10.55,16.66,24.99,16.66,40.92v69.97Z"/>
    <path class="st0" d="M724.06,383.93v67.94l-62.48,62.48v-124.79c0-4.15-1-8.06-2.77-11.51-4.2-8.21-12.73-13.83-22.58-13.83h-6.75c-9.71,0-19.61,9.91-22.64,19.19-.07-6.85-1.02-13.46-2.75-19.76-.03-.1-.05-.18-.08-.28.57-.38,1.25-.8,1.45-1,7.1-7.1,16.93-11.5,27.76-11.5,14.53,0,27.34,7.36,34.89,18.56,2.46,3.63,4.36,7.66,5.58,12,1.07,3.67,1.62,7.51,1.62,11.51v90.6l35.15-35.15v-69.97c0-9.18-2.12-17.88-5.9-25.61-1.87-3.88-4.17-7.51-6.83-10.85-10.73-13.48-27.27-22.12-45.85-22.12h-6.53c-3.87-.23-7.48-.23-10.85,0-28.39,1.83-39.85,18.58-41.17,20.66-1.93-2.8-4.03-5.46-6.33-7.98-.32-.37-.63-.73-.97-1.08,0-.02.1-.12.1-.12.35-.67.72-1.32,1.12-1.95,13.26-21.08,56.3-22.87,56.3-22.87h3.05c23.87,0,45.23,10.8,59.43,27.77,2.72,3.25,5.16,6.71,7.33,10.38,6.8,11.51,10.7,24.94,10.7,39.29Z"/>
    <path class="st0" d="M485.37,365.97c-5.08,6.36-8.25,14.31-8.56,23.01l-35.15,31.22v-15.41l43.72-38.82Z"/>
    <path class="st0" d="M704.57,352.81l-30.87,28.62c-1.22-4.33-3.12-8.36-5.58-12l29.62-27.47c2.67,3.33,4.96,6.96,6.83,10.85Z"/>
    <circle class="st0" cx="493.72" cy="257.16" r="22.16"/>
    <circle class="st0" cx="576.57" cy="257.16" r="22.16"/>
    <circle class="st0" cx="659.42" cy="257.16" r="22.16"/>
    <line class="st0" x1="515.47" y1="393.08" x2="515.47" y2="484.36"/>
    <line class="st0" x1="635.53" y1="393.08" x2="635.53" y2="484.36"/>
    <circle class="st0" cx="515.47" cy="490.41" r="6.06"/>
    <circle class="st0" cx="635.53" cy="490.41" r="6.06"/>
  </g>
  <text class="st1" transform="translate(357.01 604.41) scale(1.04 1)"><tspan x="0" y="0">TechMission</tspan></text>
</svg>